# xmcd CD database file
#
# Track frame offsets:
#	150
#	15300
#	40952
#	55958
#	70389
#	85379
#	100126
#	113646
#	127719
#	144226
#	163102
#	180470
#	194439
#
# Disc length: 2836 seconds
#
# Revision: 0
# Processed by: cddbd v1.5.1PL0 Copyright (c) Steve Scherf et al.
# Submitted via: CDex 1.50Beta5
#
DISCID=a60b120d
DTITLE=J Five - Sweet Little Nothing
DYEAR=1900
DGENRE=Trip-Hop
TTITLE0=Comin' After You
TTITLE1=Find A Way
TTITLE2=Modern Times
TTITLE3=Turn It Up
TTITLE4=Kick Me
TTITLE5=Movin' On Up
TTITLE6=I Love Paris
TTITLE7=Out Of Sight
TTITLE8=All Or Nothing
TTITLE9=C'est La Vie
TTITLE10=Wake Me Up
TTITLE11=Riddlin' Rock
TTITLE12=Sweet Little Nothing
EXTD=
EXTT0=
EXTT1=
EXTT2=
EXTT3=
EXTT4=
EXTT5=
EXTT6=
EXTT7=
EXTT8=
EXTT9=
EXTT10=
EXTT11=
EXTT12=
PLAYORDER=
